<?xml version="1.0" encoding="utf-8"?>
<!-- Generator: Adobe Illustrator 16.0.4, SVG Export Plug-In . SVG Version: 6.00 Build 0)  -->
<!DOCTYPE svg PUBLIC "-//W3C//DTD SVG 1.1//EN" "http://www.w3.org/Graphics/SVG/1.1/DTD/svg11.dtd">
<svg version="1.1" id="Ebene_1" xmlns="http://www.w3.org/2000/svg" xmlns:xlink="http://www.w3.org/1999/xlink" x="0px" y="0px"
	 width="200px" height="80px" viewBox="0 0 200 80" style="enable-background:new 0 0 200 80;" xml:space="preserve">
<g>
	<rect x="23.334" y="17.333" style="fill:none;" width="31.667" height="43"/>
	<path style="fill:#FF00FF;" d="M43.433,60.053l-8.28-21.119l-4.14,8.16v12.959h-3.54V17.334h3.54v23.219l11.339-23.219h3.78
		l-8.759,17.639l9.899,25.079H43.433z"/>
</g>
<g>
	<rect y="17.333" style="fill:none;" width="31.667" height="43"/>
	<path style="fill:#4D4D4D;" d="M9.408,38.693c0-12.899,0.3-16.079,3-18.899c1.44-1.5,3.54-2.46,6.36-2.46h8.76v42.718h-8.76
		c-2.82,0-4.92-0.96-6.36-2.46C9.708,54.773,9.408,51.593,9.408,38.693z M12.948,38.693c0,12.24,0.24,14.64,2.1,16.68
		c0.84,0.899,2.22,1.5,3.899,1.5h5.04V20.514h-5.04c-1.68,0-3.06,0.6-3.899,1.5C13.188,24.054,12.948,26.454,12.948,38.693z"/>
</g>
<g>
	<rect x="56" y="24.333" style="fill:none;" width="151" height="43"/>
	<path style="fill:#FF00FF;" d="M60.607,30.996c0-2.664-0.144-3.348-1.764-3.492l-1.152-0.108c-0.288-0.216-0.252-0.756,0.036-0.9
		c1.944-0.18,4.392-0.288,7.739-0.288c2.268,0,4.427,0.18,6.047,1.008c1.548,0.756,2.735,2.195,2.735,4.499
		c0,2.592-1.512,3.924-3.671,4.932c0,0.36,0.288,0.468,0.684,0.54c1.944,0.36,4.823,2.16,4.823,6.011
		c0,4.175-3.096,6.983-9.575,6.983c-1.044,0-2.808-0.108-4.319-0.108c-1.584,0-2.808,0.071-4.14,0.108
		c-0.216-0.108-0.288-0.685-0.072-0.9l0.647-0.107c1.908-0.324,1.98-0.721,1.98-4.5V30.996z M63.559,35.783
		c0,1.008,0.036,1.08,1.872,1.008c3.672-0.144,5.651-1.224,5.651-4.607c0-3.528-2.627-4.859-5.363-4.859
		c-0.792,0-1.332,0.072-1.656,0.216c-0.36,0.108-0.504,0.288-0.504,0.936V35.783z M63.559,44.134c0,1.296,0.072,3.132,0.756,3.924
		c0.684,0.827,1.764,1.008,2.844,1.008c3.204,0,5.651-1.44,5.651-5.04c0-2.844-1.44-6.155-7.163-6.155
		c-1.944,0-2.088,0.216-2.088,0.936V44.134z"/>
	<path style="fill:#FF00FF;" d="M83.179,46.042c0,2.591,0.072,2.951,1.368,3.132l0.864,0.107c0.252,0.18,0.18,0.792-0.072,0.9
		c-1.188-0.072-2.232-0.108-3.492-0.108c-1.296,0-2.376,0.036-3.456,0.108c-0.252-0.108-0.324-0.721-0.072-0.9l0.828-0.107
		c1.332-0.181,1.368-0.541,1.368-3.132v-16.27c0-2.124-0.036-2.34-1.116-2.988l-0.36-0.216c-0.18-0.108-0.18-0.612,0-0.72
		c0.9-0.288,2.592-0.828,3.887-1.512c0.144,0,0.288,0.072,0.36,0.216c-0.036,1.08-0.108,2.88-0.108,4.464V46.042z"/>
	<path style="fill:#FF00FF;" d="M91.963,44.781c0,2.484,0.612,4.141,3.348,4.141c0.972,0,2.124-0.396,2.916-1.08
		c0.468-0.432,0.72-0.973,0.72-2.088v-5.903c0-2.34-0.252-2.412-1.332-2.844l-0.468-0.18c-0.252-0.144-0.252-0.648,0.036-0.792
		c1.439-0.036,3.419-0.288,4.212-0.648c0.18,0.036,0.287,0.108,0.323,0.252c-0.071,0.684-0.108,1.8-0.108,3.131v6.048
		c0,2.844,0.108,3.923,1.116,3.923c0.433,0,0.899-0.071,1.403-0.18c0.217,0.18,0.252,0.899-0.035,1.044
		c-1.404,0.287-3.492,0.648-4.716,1.332c-0.18,0-0.36-0.108-0.432-0.252v-1.477c0-0.324-0.108-0.504-0.324-0.504
		c-1.08,0.684-2.844,1.872-4.967,1.872c-3.167,0-4.355-1.584-4.355-4.499v-6.012c0-2.268,0-2.592-1.08-3.06l-0.432-0.18
		c-0.216-0.18-0.18-0.684,0.072-0.792c1.656-0.036,3.06-0.36,3.852-0.648c0.216,0.036,0.324,0.108,0.36,0.252
		c-0.072,0.612-0.108,1.368-0.108,3.131V44.781z"/>
	<path style="fill:#FF00FF;" d="M109.351,40.858c-0.936,0-0.972,0.072-0.972,0.972c0,3.636,2.123,6.731,5.975,6.731
		c1.188,0,2.196-0.36,3.312-1.764c0.359-0.108,0.611,0.108,0.647,0.432c-1.188,2.448-3.779,3.348-5.651,3.348
		c-2.34,0-4.176-1.008-5.219-2.376c-1.08-1.403-1.512-3.096-1.512-4.68c0-4.427,2.915-8.134,7.234-8.134
		c3.096,0,5.111,2.124,5.111,4.283c0,0.504-0.072,0.792-0.144,0.936c-0.108,0.216-0.612,0.252-2.124,0.252H109.351z M111.582,39.778
		c2.664,0,3.456-0.144,3.744-0.36c0.107-0.072,0.216-0.216,0.216-0.684c0-1.008-0.685-2.268-2.771-2.268
		c-2.124,0-3.96,1.944-3.995,3.132c0,0.072,0,0.18,0.252,0.18H111.582z"/>
	<path style="fill:#FF00FF;" d="M121.986,39.743c0-1.404,0-1.584-0.971-2.232l-0.324-0.216c-0.145-0.144-0.145-0.54,0.035-0.648
		c0.937-0.396,2.628-1.26,3.564-1.944c0.215,0,0.359,0.072,0.432,0.252c-0.072,0.648-0.145,1.188-0.145,1.656
		c0,0.252,0.072,0.468,0.324,0.468c0.469-0.216,2.736-1.692,5.039-1.692c3.637,0,5.976,2.952,5.976,6.587
		c0,5.003-3.671,8.603-8.782,8.603c-0.648,0-1.656-0.071-1.98-0.144c-0.324,0.072-0.504,0.252-0.504,1.008v3.779
		c0,2.556,0.072,2.88,1.368,3.06l1.403,0.18c0.252,0.181,0.18,0.792-0.072,0.9c-1.727-0.072-2.771-0.108-4.031-0.108
		c-1.295,0-2.375,0.036-3.383,0.108c-0.252-0.108-0.324-0.72-0.072-0.9l0.756-0.107c1.332-0.181,1.367-0.54,1.367-3.132V39.743z
		 M124.65,46.438c0,1.152,0.359,1.584,1.08,2.16c0.72,0.539,1.836,0.791,2.592,0.791c2.951,0,4.68-2.734,4.68-6.479
		c0-2.88-1.62-5.795-4.859-5.795c-1.549,0-2.664,0.576-3.061,1.008c-0.324,0.396-0.432,0.936-0.432,2.124V46.438z"/>
	<path style="fill:#FF00FF;" d="M140.706,39.743c0-1.404,0-1.584-0.972-2.232l-0.324-0.216c-0.144-0.144-0.144-0.54,0.036-0.648
		c0.828-0.288,2.735-1.224,3.636-1.764c0.18,0.036,0.288,0.108,0.288,0.252v2.087c0,0.18,0.036,0.288,0.108,0.324
		c1.26-1.044,2.627-2.16,3.959-2.16c0.899,0,1.62,0.576,1.62,1.44c0,1.188-0.973,1.656-1.548,1.656c-0.36,0-0.54-0.108-0.792-0.252
		c-0.54-0.36-1.08-0.576-1.584-0.576c-0.576,0-1.008,0.324-1.296,0.72c-0.359,0.504-0.468,1.548-0.468,2.772v4.896
		c0,2.591,0.071,3.023,1.439,3.132l1.296,0.107c0.252,0.18,0.18,0.792-0.072,0.9c-1.691-0.072-2.735-0.108-3.995-0.108
		c-1.296,0-2.376,0.036-3.312,0.108c-0.252-0.108-0.324-0.721-0.072-0.9l0.684-0.107c1.332-0.217,1.368-0.541,1.368-3.132V39.743z"
		/>
	<path style="fill:#FF00FF;" d="M152.657,39.743c0-1.404,0-1.584-0.972-2.232l-0.324-0.216c-0.144-0.144-0.144-0.54,0.036-0.648
		c0.828-0.288,2.88-1.224,3.708-1.764c0.18,0,0.323,0.072,0.359,0.216c-0.071,1.26-0.144,2.988-0.144,4.463v6.479
		c0,2.591,0.072,2.951,1.367,3.132l0.757,0.107c0.252,0.18,0.18,0.792-0.072,0.9c-1.08-0.072-2.124-0.108-3.384-0.108
		c-1.296,0-2.376,0.036-3.384,0.108c-0.252-0.108-0.323-0.721-0.071-0.9l0.756-0.107c1.331-0.181,1.367-0.541,1.367-3.132V39.743z
		 M155.646,29.484c0,1.296-0.9,1.872-1.908,1.872c-1.116,0-1.836-0.828-1.836-1.8c0-1.188,0.864-1.943,1.944-1.943
		C154.925,27.612,155.646,28.476,155.646,29.484z"/>
	<path style="fill:#FF00FF;" d="M161.909,39.743c0-1.404,0-1.584-0.972-2.232l-0.324-0.216c-0.144-0.144-0.144-0.54,0.036-0.648
		c0.828-0.288,2.88-1.224,3.6-1.764c0.145,0,0.324,0.072,0.396,0.252c-0.072,0.828-0.072,1.368-0.072,1.692
		c0,0.216,0.144,0.396,0.396,0.396c1.512-0.936,3.204-1.835,5.04-1.835c2.987,0,4.211,2.052,4.211,4.463v6.191
		c0,2.591,0.072,2.951,1.368,3.132l0.792,0.107c0.252,0.18,0.18,0.792-0.072,0.9c-1.08-0.072-2.124-0.108-3.384-0.108
		c-1.296,0-2.376,0.036-3.348,0.108c-0.252-0.108-0.323-0.721-0.071-0.9l0.684-0.107c1.332-0.217,1.368-0.541,1.368-3.132v-5.364
		c0-2.052-0.937-3.563-3.384-3.563c-1.368,0-2.556,0.576-3.06,1.26c-0.468,0.612-0.54,1.116-0.54,2.16v5.507
		c0,2.591,0.072,2.915,1.367,3.132l0.648,0.107c0.252,0.18,0.18,0.792-0.072,0.9c-0.972-0.072-2.016-0.108-3.275-0.108
		c-1.296,0-2.376,0.036-3.384,0.108c-0.252-0.108-0.323-0.721-0.071-0.9l0.756-0.107c1.331-0.181,1.367-0.541,1.367-3.132V39.743z"
		/>
	<path style="fill:#FF00FF;" d="M183.761,37.403c-0.612,0-0.648,0.108-0.648,0.864v6.731c0,2.088,0.252,3.995,2.628,3.995
		c0.36,0,0.684-0.071,0.972-0.18c0.324-0.108,0.792-0.504,0.9-0.504c0.288,0,0.432,0.396,0.359,0.612
		c-0.647,0.756-1.943,1.655-3.779,1.655c-3.096,0-3.743-1.728-3.743-3.888v-8.243c0-0.972-0.036-1.044-0.756-1.044h-1.008
		c-0.217-0.144-0.253-0.54-0.108-0.756c1.044-0.324,1.943-0.792,2.304-1.116c0.468-0.432,1.151-1.404,1.512-2.124
		c0.18-0.072,0.612-0.072,0.756,0.18v1.62c0,0.648,0.036,0.684,0.648,0.684h3.995c0.432,0.324,0.36,1.296,0.036,1.512H183.761z"/>
</g>
<g>
</g>
<g>
</g>
<g>
</g>
<g>
</g>
<g>
</g>
<g>
</g>
<g>
</g>
<g>
</g>
<g>
</g>
<g>
</g>
<g>
</g>
<g>
</g>
<g>
</g>
<g>
</g>
<g>
</g>
</svg>
